<?xml version="1.0" standalone="no"?><!DOCTYPE svg PUBLIC "-//W3C//DTD SVG 1.1//EN" "http://www.w3.org/Graphics/SVG/1.1/DTD/svg11.dtd"><svg t="1593855938041" class="icon" viewBox="0 0 1024 1024" version="1.1" xmlns="http://www.w3.org/2000/svg" p-id="2057" width="128" height="128" xmlns:xlink="http://www.w3.org/1999/xlink"><defs><style type="text/css"></style></defs><path d="M554.667 682.667V768H640a42.667 42.667 0 0 1 0 85.333h-85.333V896a42.667 42.667 0 0 1-85.334 0V509.867c-144.725-14.848-256-103.766-256-211.2 0-117.803 133.718-213.334 298.667-213.334s298.667 95.531 298.667 213.334c0 107.477-111.275 196.394-256 211.2v87.466H640a42.667 42.667 0 0 1 0 85.334h-85.333zM512 384a85.333 85.333 0 1 0 0-170.667A85.333 85.333 0 0 0 512 384z" p-id="2058" fill="#889AA4"></path></svg>